<svg width="22" height="18" viewBox="0 0 22 18" fill="none" xmlns="http://www.w3.org/2000/svg">
<path d="M10.579 14.0347H4.67972L3.47449 17.7614C3.46102 17.8293 3.42264 17.8897 3.36689 17.9308C3.31114 17.9719 3.24205 17.9907 3.17318 17.9834H0.191815C0.0173734 17.9834 -0.0302013 17.8882 0.0173737 17.6979L5.12375 2.99728C5.17133 2.8387 5.2189 2.66426 5.28233 2.47396C5.34616 2.13409 5.37801 1.78898 5.37748 1.44317C5.37273 1.40345 5.38316 1.36341 5.40669 1.33106C5.43022 1.29871 5.4651 1.27644 5.50435 1.26873H9.61165C9.73852 1.26873 9.80195 1.3163 9.81781 1.39559L15.6061 17.7297C15.6537 17.9041 15.6061 17.9834 15.4475 17.9834H12.1331C12.0771 17.9888 12.0209 17.9743 11.9745 17.9424C11.9281 17.9105 11.8944 17.8632 11.8794 17.809L10.579 14.0347ZM5.5995 10.8154H9.62751C9.53236 10.4824 9.40549 10.086 9.26277 9.67364C9.12005 9.26132 8.97732 8.78557 8.8346 8.30982C8.69187 7.83407 8.53329 7.34246 8.3747 6.85085C8.21612 6.35925 8.0734 5.89936 7.94653 5.43946C7.81966 4.97957 7.70866 4.58312 7.59765 4.20252H7.56593C7.42341 4.89369 7.24342 5.57661 7.02675 6.24824C6.78887 7.00944 6.551 7.80235 6.29727 8.59527C6.07525 9.40404 5.83737 10.1494 5.5995 10.8154ZM19.0632 3.9805C18.8029 3.9862 18.5441 3.94006 18.3018 3.84477C18.0594 3.74948 17.8385 3.60694 17.6518 3.42546C17.2885 3.02819 17.095 2.50456 17.1126 1.96649C17.1033 1.70433 17.1493 1.44313 17.2476 1.19994C17.346 0.956754 17.4945 0.737031 17.6835 0.555104C18.0647 0.194827 18.5704 -0.00406089 19.0949 6.28679e-05C19.7134 6.28679e-05 20.1891 0.190363 20.538 0.555104C20.8894 0.939627 21.0771 1.44588 21.0614 1.96649C21.071 2.23443 21.0269 2.50159 20.9316 2.75218C20.8362 3.00277 20.6916 3.2317 20.5063 3.42546C20.3195 3.61579 20.0939 3.76383 19.845 3.85958C19.596 3.95533 19.3295 3.99656 19.0632 3.9805ZM17.2871 17.7455V5.53462C17.2871 5.37603 17.3505 5.3126 17.4932 5.3126H20.6332C20.7759 5.3126 20.8393 5.39189 20.8393 5.53462V17.7455C20.8393 17.92 20.7759 17.9992 20.6332 17.9992H17.525C17.4916 18.002 17.4581 17.9972 17.4269 17.9852C17.3957 17.9731 17.3676 17.9542 17.3447 17.9298C17.3219 17.9054 17.3048 17.8762 17.2948 17.8443C17.2848 17.8124 17.2822 17.7786 17.2871 17.7455Z" fill="url(#paint0_linear_2984_2368)"/>
<defs>
<linearGradient id="paint0_linear_2984_2368" x1="0" y1="9" x2="21.0627" y2="9" gradientUnits="userSpaceOnUse">
<stop stop-color="#654EA3"/>
<stop offset="1" stop-color="#EAAFC8"/>
</linearGradient>
</defs>
</svg>
