<svg width="18" height="24" viewBox="0 0 18 24" fill="none" xmlns="http://www.w3.org/2000/svg">
<path d="M12.8104 8.981H8.22236V0H12.8104C15.2864 0 17.3004 2.014 17.3004 4.49C17.3004 6.966 15.2864 8.981 12.8104 8.981ZM9.69336 7.51H12.8104C14.4754 7.51 15.8294 6.155 15.8294 4.491C15.8294 2.827 14.4744 1.472 12.8104 1.472H9.69336V7.51ZM9.69336 8.981H5.10636C2.63036 8.981 0.616356 6.967 0.616356 4.491C0.616356 2.015 2.63036 0 5.10636 0H9.69436V8.981H9.69336ZM5.10636 1.471C3.44136 1.471 2.08736 2.826 2.08736 4.49C2.08736 6.154 3.44136 7.51 5.10636 7.51H8.22336V1.471H5.10636ZM9.69336 16.49H5.10636C2.63036 16.49 0.616356 14.476 0.616356 12C0.616356 9.524 2.63036 7.51 5.10636 7.51H9.69436V16.49H9.69336ZM5.10636 8.981C3.44136 8.981 2.08736 10.336 2.08736 12C2.08736 13.664 3.44236 15.019 5.10636 15.019H8.22336V8.981H5.10636ZM5.13036 24C2.64136 24 0.615356 21.986 0.615356 19.51C0.615356 17.034 2.62936 15.02 5.10536 15.02H9.69336V19.461C9.69336 21.964 7.64636 24 5.13036 24ZM5.10636 16.49C4.30599 16.4911 3.53871 16.8095 2.97277 17.3754C2.40683 17.9414 2.08841 18.7086 2.08736 19.509C2.08736 21.174 3.45236 22.528 5.13136 22.528C6.83636 22.528 8.22436 21.152 8.22436 19.46V16.49H5.10636ZM12.8104 16.49H12.7124C10.2364 16.49 8.22236 14.476 8.22236 12C8.22236 9.524 10.2364 7.51 12.7124 7.51H12.8104C15.2864 7.51 17.3004 9.524 17.3004 12C17.3004 14.476 15.2864 16.49 12.8104 16.49ZM12.7134 8.981C11.0484 8.981 9.69436 10.336 9.69436 12C9.69436 13.664 11.0494 15.019 12.7134 15.019H12.8114C14.4764 15.019 15.8304 13.664 15.8304 12C15.8304 10.336 14.4754 8.981 12.8114 8.981H12.7134Z" fill="url(#paint0_linear_2984_226)"/>
<defs>
<linearGradient id="paint0_linear_2984_226" x1="0.615356" y1="12" x2="17.3004" y2="12" gradientUnits="userSpaceOnUse">
<stop stop-color="#654EA3"/>
<stop offset="1" stop-color="#EAAFC8"/>
</linearGradient>
</defs>
</svg>
