<svg width="32" height="34" viewBox="0 0 32 34" fill="none" xmlns="http://www.w3.org/2000/svg">
<g filter="url(#filter0_d_3181_24161)">
<path fill-rule="evenodd" clip-rule="evenodd" d="M4.00003 1.55851C4.00003 2.41929 4.70536 3.11706 5.57538 3.11706H14.4305H18.6315C20.1193 3.11706 21.3446 3.57161 22.3073 4.48076C23.27 5.3899 23.7514 6.55879 23.7514 7.98743C23.7514 9.30784 23.27 10.3901 22.3073 11.2344C21.3446 12.0569 20.1193 12.4682 18.6315 12.4682H12.9573C12.0872 12.4682 11.3819 13.166 11.3819 14.0267C11.3819 14.8875 12.0872 15.5852 12.9573 15.5852H18.6315H19.2222L24.8673 24.5468C25.2174 25.0879 25.7097 25.3585 26.3442 25.3585C27.0444 25.3585 27.5367 25.0879 27.8211 24.5468C28.1055 23.984 28.0508 23.3887 27.657 22.761L22.6355 14.7735C23.9921 14.1674 25.0642 13.2799 25.8519 12.111C26.6396 10.9205 27.0334 9.54598 27.0334 7.98743C27.0334 6.40728 26.6724 5.02193 25.9503 3.83135C25.2502 2.64082 24.2656 1.71007 22.9966 1.03902C21.7275 0.346325 20.2725 0 18.6315 0H5.57538C4.70536 0 4.00003 0.697766 4.00003 1.55851Z" fill="url(#paint0_linear_3181_24161)"/>
</g>
<defs>
<filter id="filter0_d_3181_24161" x="3.05176e-05" y="0" width="32" height="33.3584" filterUnits="userSpaceOnUse" color-interpolation-filters="sRGB">
<feFlood flood-opacity="0" result="BackgroundImageFix"/>
<feColorMatrix in="SourceAlpha" type="matrix" values="0 0 0 0 0 0 0 0 0 0 0 0 0 0 0 0 0 0 127 0" result="hardAlpha"/>
<feOffset dy="4"/>
<feGaussianBlur stdDeviation="2"/>
<feComposite in2="hardAlpha" operator="out"/>
<feColorMatrix type="matrix" values="0 0 0 0 0 0 0 0 0 0 0 0 0 0 0 0 0 0 0.15 0"/>
<feBlend mode="normal" in2="BackgroundImageFix" result="effect1_dropShadow_3181_24161"/>
<feBlend mode="normal" in="SourceGraphic" in2="effect1_dropShadow_3181_24161" result="shape"/>
</filter>
<linearGradient id="paint0_linear_3181_24161" x1="16" y1="0" x2="16" y2="25.3585" gradientUnits="userSpaceOnUse">
<stop stop-color="#F9F6FD"/>
<stop offset="1" stop-color="#B0AFB7"/>
</linearGradient>
</defs>
</svg>
