<svg width="33" height="34" viewBox="0 0 33 34" fill="none" xmlns="http://www.w3.org/2000/svg">
<g filter="url(#filter0_d_3185_28193)">
<path fill-rule="evenodd" clip-rule="evenodd" d="M4.61536 1.55851C4.61536 2.41929 5.32069 3.11706 6.19071 3.11706H15.0458H19.2468C20.7347 3.11706 21.9599 3.57161 22.9227 4.48076C23.8854 5.3899 24.3667 6.55879 24.3667 7.98743C24.3667 9.30784 23.8854 10.3901 22.9227 11.2344C21.9599 12.0569 20.7347 12.4682 19.2468 12.4682H13.5726C12.7025 12.4682 11.9973 13.166 11.9973 14.0267C11.9973 14.8875 12.7025 15.5852 13.5726 15.5852H19.2468H19.8376L25.4826 24.5468C25.8327 25.0879 26.325 25.3585 26.9595 25.3585C27.6597 25.3585 28.152 25.0879 28.4364 24.5468C28.7209 23.984 28.6662 23.3887 28.2723 22.761L23.2509 14.7735C24.6074 14.1674 25.6796 13.2799 26.4672 12.111C27.2549 10.9205 27.6488 9.54598 27.6488 7.98743C27.6488 6.40728 27.2878 5.02193 26.5657 3.83135C25.8656 2.64082 24.8809 1.71007 23.6119 1.03902C22.3428 0.346325 20.8878 0 19.2468 0H6.19071C5.32069 0 4.61536 0.697766 4.61536 1.55851Z" fill="url(#paint0_linear_3185_28193)"/>
</g>
<defs>
<filter id="filter0_d_3185_28193" x="0.615356" y="0" width="32" height="33.3585" filterUnits="userSpaceOnUse" color-interpolation-filters="sRGB">
<feFlood flood-opacity="0" result="BackgroundImageFix"/>
<feColorMatrix in="SourceAlpha" type="matrix" values="0 0 0 0 0 0 0 0 0 0 0 0 0 0 0 0 0 0 127 0" result="hardAlpha"/>
<feOffset dy="4"/>
<feGaussianBlur stdDeviation="2"/>
<feComposite in2="hardAlpha" operator="out"/>
<feColorMatrix type="matrix" values="0 0 0 0 0 0 0 0 0 0 0 0 0 0 0 0 0 0 0.15 0"/>
<feBlend mode="normal" in2="BackgroundImageFix" result="effect1_dropShadow_3185_28193"/>
<feBlend mode="normal" in="SourceGraphic" in2="effect1_dropShadow_3185_28193" result="shape"/>
</filter>
<linearGradient id="paint0_linear_3185_28193" x1="4.61536" y1="12.6792" x2="28.6154" y2="12.6792" gradientUnits="userSpaceOnUse">
<stop stop-color="#654EA3"/>
<stop offset="1" stop-color="#EAAFC8"/>
</linearGradient>
</defs>
</svg>
