<svg width="31" height="18" viewBox="0 0 31 18" fill="none" xmlns="http://www.w3.org/2000/svg">
<path d="M11.703 13.4475H5.43423L4.15351 17.4245C4.1392 17.4966 4.09842 17.5609 4.03918 17.6045C3.97994 17.6482 3.90652 17.6681 3.83334 17.6604H0.665254C0.479888 17.6604 0.429333 17.5593 0.479888 17.357L5.90607 1.80311C5.95663 1.6346 6.00718 1.48293 6.07459 1.28071C6.14241 0.919555 6.17626 0.552838 6.17569 0.185366C6.17065 0.143162 6.18173 0.100609 6.20673 0.0662337C6.23173 0.0318583 6.2688 0.00820009 6.31051 0H10.675C10.793 0 10.8773 0.0505544 10.8941 0.134812L17.0449 17.4076C17.0955 17.593 17.0449 17.6772 16.8764 17.6772H13.3544C13.2949 17.683 13.2352 17.6675 13.1859 17.6336C13.1366 17.5997 13.1008 17.5495 13.0848 17.4919L11.703 13.4475ZM6.41162 10.094H10.6919C10.5908 9.74017 10.456 9.31888 10.3043 8.88074C10.1526 8.4426 10.001 7.93706 9.84932 7.43151C9.69766 6.92597 9.52914 6.40357 9.36063 5.88117C9.19211 5.35878 9.04045 4.87008 8.90564 4.38139C8.77083 3.8927 8.65287 3.47141 8.5349 3.06697H8.5012C8.34975 3.80144 8.15849 4.52712 7.92825 5.24082C7.67548 6.04969 7.42271 6.89226 7.15308 7.73484C6.93401 8.59426 6.66439 9.38628 6.41162 10.094ZM27.0379 11.8972H21.6959C21.7597 12.429 21.9379 12.9406 22.2183 13.3969C22.5161 13.8511 22.9452 14.2038 23.4485 14.408C24.1296 14.6993 24.8648 14.8429 25.6055 14.8293C26.1939 14.8185 26.7803 14.7565 27.358 14.644C27.8719 14.5767 28.3756 14.4465 28.8578 14.2564C28.9421 14.189 28.9926 14.2227 28.9926 14.3912V16.9695C28.9897 17.038 28.9783 17.1059 28.9589 17.1717C28.9285 17.219 28.8882 17.2592 28.841 17.2896C28.302 17.5263 27.7361 17.6961 27.1558 17.7952C26.3675 17.9468 25.5654 18.0146 24.7629 17.9974C23.4822 17.9974 22.4037 17.7952 21.5274 17.4076C20.7028 17.0497 19.9751 16.501 19.4041 15.8067C18.8706 15.1575 18.475 14.4064 18.2414 13.5992C17.7476 11.918 17.7711 10.1271 18.3088 8.45945C18.5775 7.61571 19.0066 6.8318 19.5726 6.1508C20.1299 5.47739 20.8253 4.93146 21.6117 4.5499C22.4037 4.16232 23.3474 4.02751 24.4259 4.02751C25.3244 4.00666 26.2164 4.18506 27.0379 4.5499C27.7282 4.84919 28.3355 5.31185 28.8073 5.89802C29.2552 6.47358 29.5975 7.12401 29.8183 7.8191C30.0326 8.48326 30.1407 9.1771 30.1385 9.87498C30.1385 10.2794 30.1217 10.6333 30.1048 10.9535C30.088 11.2737 30.0543 11.5096 30.0374 11.6612C30.03 11.7196 30.0023 11.7735 29.9592 11.8136C29.9161 11.8536 29.8603 11.8772 29.8015 11.8803C29.7004 11.8803 29.515 11.8972 29.2454 11.914C28.9209 11.9509 28.5945 11.9677 28.268 11.9646C27.8804 11.9646 27.476 11.8972 27.0379 11.8972ZM21.6959 9.43684H25.2516C25.6897 9.43684 26.0099 9.43684 26.2121 9.41999C26.3506 9.40845 26.484 9.36208 26.5997 9.28518V9.11666C26.6004 8.90469 26.5662 8.69405 26.4986 8.49316C26.3511 8.03205 26.0576 7.63144 25.6624 7.35178C25.2672 7.07211 24.7918 6.92857 24.3079 6.94282C23.8506 6.91717 23.3956 7.02445 22.9979 7.25171C22.6002 7.47897 22.2768 7.8165 22.0667 8.22353C21.8701 8.60195 21.7444 9.01317 21.6959 9.43684Z" fill="#9999FF"/>
</svg>

