<svg width="30" height="18" viewBox="0 0 30 18" fill="none" xmlns="http://www.w3.org/2000/svg">
<path d="M11.3185 13.4475H5.04971L3.76899 17.4245C3.75468 17.4966 3.7139 17.5609 3.65466 17.6045C3.59542 17.6482 3.522 17.6681 3.44882 17.6604H0.280733C0.0953661 17.6604 0.0448115 17.5593 0.095366 17.357L5.52155 1.80311C5.5721 1.6346 5.62266 1.48293 5.69006 1.28071C5.75788 0.919555 5.79173 0.552838 5.79117 0.185366C5.78612 0.143162 5.79721 0.100609 5.82221 0.0662337C5.84721 0.0318583 5.88428 0.00820009 5.92599 0H10.2905C10.4085 0 10.4927 0.0505544 10.5096 0.134812L16.6604 17.4076C16.7109 17.593 16.6604 17.6772 16.4919 17.6772H12.9699C12.9103 17.683 12.8507 17.6675 12.8014 17.6336C12.752 17.5997 12.7163 17.5495 12.7003 17.4919L11.3185 13.4475ZM6.02709 10.094H10.3074C10.2063 9.74017 10.0715 9.31888 9.91979 8.88074C9.76813 8.4426 9.61646 7.93706 9.4648 7.43151C9.31314 6.92597 9.14462 6.40357 8.97611 5.88117C8.80759 5.35878 8.65593 4.87008 8.52112 4.38139C8.3863 3.8927 8.26834 3.47141 8.15038 3.06697H8.11668C7.96523 3.80144 7.77397 4.52712 7.54373 5.24082C7.29096 6.04969 7.03818 6.89226 6.76856 7.73484C6.54949 8.59426 6.27987 9.38628 6.02709 10.094ZM26.6533 11.8972H21.3114C21.3752 12.429 21.5534 12.9406 21.8338 13.3969C22.1316 13.8511 22.5607 14.2038 23.064 14.408C23.7451 14.6993 24.4803 14.8429 25.221 14.8293C25.8094 14.8185 26.3958 14.7565 26.9735 14.644C27.4874 14.5767 27.9911 14.4465 28.4733 14.2564C28.5576 14.189 28.6081 14.2227 28.6081 14.3912V16.9695C28.6051 17.038 28.5938 17.1059 28.5744 17.1717C28.5439 17.219 28.5037 17.2592 28.4564 17.2896C27.9175 17.5263 27.3515 17.6961 26.7713 17.7952C25.983 17.9468 25.1809 18.0146 24.3784 17.9974C23.0977 17.9974 22.0192 17.7952 21.1429 17.4076C20.3183 17.0497 19.5906 16.501 19.0196 15.8067C18.4861 15.1575 18.0904 14.4064 17.8568 13.5992C17.3631 11.918 17.3865 10.1271 17.9243 8.45945C18.193 7.61571 18.6221 6.8318 19.1881 6.1508C19.7454 5.47739 20.4407 4.93146 21.2271 4.5499C22.0192 4.16232 22.9629 4.02751 24.0413 4.02751C24.9399 4.00666 25.8319 4.18506 26.6533 4.5499C27.3437 4.84919 27.9509 5.31185 28.4227 5.89802C28.8707 6.47358 29.213 7.12401 29.4338 7.8191C29.6481 8.48326 29.7562 9.1771 29.754 9.87498C29.754 10.2794 29.7372 10.6333 29.7203 10.9535C29.7035 11.2737 29.6698 11.5096 29.6529 11.6612C29.6455 11.7196 29.6178 11.7735 29.5747 11.8136C29.5316 11.8536 29.4757 11.8772 29.417 11.8803C29.3159 11.8803 29.1305 11.8972 28.8609 11.914C28.5364 11.9509 28.21 11.9677 27.8835 11.9646C27.4959 11.9646 27.0915 11.8972 26.6533 11.8972ZM21.3114 9.43684H24.8671C25.3052 9.43684 25.6254 9.43684 25.8276 9.41999C25.9661 9.40845 26.0994 9.36208 26.2152 9.28518V9.11666C26.2159 8.90469 26.1817 8.69405 26.1141 8.49316C25.9666 8.03205 25.6731 7.63144 25.2779 7.35178C24.8827 7.07211 24.4073 6.92857 23.9234 6.94282C23.466 6.91717 23.0111 7.02445 22.6134 7.25171C22.2157 7.47897 21.8922 7.8165 21.6821 8.22353C21.4855 8.60195 21.3599 9.01317 21.3114 9.43684Z" fill="url(#paint0_linear_2984_3813)"/>
<defs>
<linearGradient id="paint0_linear_2984_3813" x1="0.0769043" y1="9" x2="29.754" y2="9" gradientUnits="userSpaceOnUse">
<stop stop-color="#654EA3"/>
<stop offset="1" stop-color="#EAAFC8"/>
</linearGradient>
</defs>
</svg>