<svg width="16" height="16" viewBox="0 0 16 16" fill="none" xmlns="http://www.w3.org/2000/svg">
<path d="M8 14C11.3137 14 14 11.3137 14 8C14 4.68629 11.3137 2 8 2C4.68629 2 2 4.68629 2 8C2 11.3137 4.68629 14 8 14Z" fill="#232327"/>
<path fill-rule="evenodd" clip-rule="evenodd" d="M11.1118 6.15487C11.3024 6.35467 11.2949 6.67116 11.0951 6.86178L7.42639 10.3618C7.23308 10.5462 6.92895 10.5461 6.73581 10.3615L4.90456 8.61148C4.70492 8.4207 4.69774 8.1042 4.88852 7.90456C5.0793 7.70492 5.3958 7.69774 5.59544 7.88852L7.08155 9.30868L10.4049 6.13823C10.6047 5.94761 10.9212 5.95506 11.1118 6.15487Z" fill="#E7E7E7"/>
</svg>
