<svg width="16" height="24" viewBox="0 0 16 24" fill="none" xmlns="http://www.w3.org/2000/svg">
<path d="M8 12C8 10.9391 8.42143 9.92169 9.17157 9.17154C9.92172 8.4214 10.9391 7.99997 12 7.99997C13.0609 7.99997 14.0783 8.4214 14.8284 9.17154C15.5786 9.92169 16 10.9391 16 12C16 13.0608 15.5786 14.0783 14.8284 14.8284C14.0783 15.5785 13.0609 16 12 16C10.9391 16 9.92172 15.5785 9.17157 14.8284C8.42143 14.0783 8 13.0608 8 12Z" fill="#1ABCFE"/>
<path d="M0 20C0 18.9392 0.421427 17.9217 1.17157 17.1715C1.92172 16.4215 2.93913 16 4 16H8V20C8 21.0609 7.57857 22.0784 6.82843 22.8285C6.07828 23.5785 5.06087 24 4 24C2.93913 24 1.92172 23.5785 1.17157 22.8285C0.421427 22.0784 0 21.0609 0 20Z" fill="#0ACF83"/>
<path d="M8 0V8H12C13.0609 8 14.0783 7.57857 14.8284 6.82843C15.5786 6.07828 16 5.06087 16 4C16 2.93913 15.5786 1.92172 14.8284 1.17157C14.0783 0.421427 13.0609 0 12 0H8Z" fill="#FF7262"/>
<path d="M0 4C0 5.06087 0.421427 6.07828 1.17157 6.82843C1.92172 7.57857 2.93913 8 4 8H8V0H4C2.93913 0 1.92172 0.421427 1.17157 1.17157C0.421427 1.92172 0 2.93913 0 4Z" fill="#F24E1E"/>
<path d="M0 12C0 13.0608 0.421427 14.0783 1.17157 14.8284C1.92172 15.5785 2.93913 16 4 16H8V7.99997H4C2.93913 7.99997 1.92172 8.4214 1.17157 9.17154C0.421427 9.92169 0 10.9391 0 12Z" fill="#A259FF"/>
</svg>
