<svg width="25" height="18" viewBox="0 0 25 18" fill="none" xmlns="http://www.w3.org/2000/svg">
<path d="M0 17.4333V0.283333C0 0.166667 0.05 0.0999997 0.166667 0.0999997C0.45 0.0999997 0.716666 0.1 1.1 0.0833333C1.5 0.0666667 1.91667 0.0666665 2.36667 0.0499999C2.81667 0.0333332 3.3 0.0333331 3.81667 0.0166664C4.33333 -2.54562e-07 4.83333 0 5.33333 0C6.7 0 7.83333 0.166666 8.76667 0.516666C9.6 0.8 10.3667 1.26667 11 1.88333C11.5333 2.41667 11.95 3.06667 12.2167 3.78333C12.4667 4.48333 12.6 5.2 12.6 5.95C12.6 7.38333 12.2667 8.56667 11.6 9.5C10.9333 10.4333 10 11.1333 8.91667 11.5333C7.78333 11.95 6.53333 12.1 5.16667 12.1C4.76667 12.1 4.5 12.1 4.33333 12.0833C4.16667 12.0667 3.93333 12.0667 3.61667 12.0667V17.4167C3.63333 17.5333 3.55 17.6333 3.43333 17.65H0.2C0.0666668 17.65 0 17.5833 0 17.4333ZM3.63333 3.31667V8.91667C3.86667 8.93333 4.08333 8.95 4.28333 8.95H5.16667C5.81667 8.95 6.46667 8.85 7.08333 8.65C7.61667 8.5 8.08333 8.18333 8.45 7.76667C8.8 7.35 8.96667 6.78333 8.96667 6.05C8.98333 5.53333 8.85 5.01667 8.58333 4.56667C8.3 4.13333 7.9 3.8 7.41667 3.61667C6.8 3.36667 6.13333 3.26667 5.45 3.28333C5.01667 3.28333 4.63333 3.28333 4.31667 3.3C3.98333 3.28333 3.75 3.3 3.63333 3.31667ZM23 7.9C22.5 7.63333 21.9667 7.45 21.4 7.33333C20.7833 7.2 20.1667 7.11667 19.5333 7.11667C19.2 7.1 18.85 7.15 18.5333 7.23333C18.3167 7.28333 18.1333 7.4 18.0167 7.56667C17.9333 7.7 17.8833 7.86667 17.8833 8.01667C17.8833 8.16667 17.95 8.31667 18.05 8.45C18.2 8.63333 18.4 8.78333 18.6167 8.9C19 9.1 19.4 9.28333 19.8 9.45C20.7 9.75 21.5667 10.1667 22.3667 10.6667C22.9167 11.0167 23.3667 11.4833 23.6833 12.05C23.95 12.5833 24.0833 13.1667 24.0667 13.7667C24.0833 14.55 23.85 15.3333 23.4167 15.9833C22.95 16.65 22.3 17.1667 21.55 17.4667C20.7333 17.8167 19.7333 18 18.5333 18C17.7667 18 17.0167 17.9333 16.2667 17.7833C15.6833 17.6833 15.1 17.5 14.5667 17.25C14.45 17.1833 14.3667 17.0667 14.3833 16.9333V14.0333C14.3833 13.9833 14.4 13.9167 14.45 13.8833C14.5 13.85 14.55 13.8667 14.6 13.9C15.25 14.2833 15.9333 14.55 16.6667 14.7167C17.3 14.8833 17.9667 14.9667 18.6333 14.9667C19.2667 14.9667 19.7167 14.8833 20.0167 14.7333C20.2833 14.6167 20.4667 14.3333 20.4667 14.0333C20.4667 13.8 20.3333 13.5833 20.0667 13.3667C19.8 13.15 19.25 12.9 18.4333 12.5833C17.5833 12.2833 16.8 11.8833 16.0667 11.3833C15.55 11.0167 15.1167 10.5333 14.8 9.96667C14.5333 9.43333 14.4 8.85 14.4167 8.26667C14.4167 7.55 14.6167 6.86667 14.9833 6.25C15.4 5.58333 16.0167 5.05 16.7333 4.71667C17.5167 4.31667 18.5 4.13333 19.6833 4.13333C20.3667 4.13333 21.0667 4.18333 21.75 4.28333C22.25 4.35 22.7333 4.48333 23.1833 4.66667C23.25 4.68333 23.3167 4.75 23.35 4.81667C23.3667 4.88333 23.3833 4.95 23.3833 5.01667V7.73333C23.3833 7.8 23.35 7.86667 23.3 7.9C23.15 7.93333 23.0667 7.93333 23 7.9Z" fill="#31A8FF"/>
</svg>
