<svg width="201" height="27" viewBox="0 0 201 27" fill="none" xmlns="http://www.w3.org/2000/svg">
<g clip-path="url(#clip0_104_719)">
<path d="M14.9982 4.19995H2.83114C1.26986 4.19995 0 5.22022 0 6.47563V6.9986C0 8.254 1.26986 9.27563 2.83114 9.27563L9.6908 9.29049C9.79694 9.2912 9.89848 9.32934 9.97339 9.39664C10.0483 9.46394 10.0905 9.55496 10.0909 9.64995C10.0909 9.69715 10.0805 9.7439 10.0604 9.78751C10.0402 9.83112 10.0106 9.87075 9.97329 9.90413C9.936 9.93751 9.89172 9.96398 9.84299 9.98205C9.79426 10.0001 9.74203 10.0094 9.68929 10.0094H8.45114L7.75505 10.0175C7.54743 10.0145 7.34122 10.0485 7.14851 10.1177C6.9558 10.1869 6.78047 10.2899 6.6328 10.4205C6.48513 10.5512 6.36809 10.7069 6.28856 10.8786C6.20902 11.0502 6.16858 11.2344 6.16961 11.4202V20.4432C6.16842 20.6735 6.21808 20.9018 6.31573 21.1149C6.41339 21.328 6.55712 21.5217 6.73868 21.6849C6.92023 21.8482 7.13602 21.9777 7.37367 22.0661C7.61131 22.1545 7.86613 22.2 8.12348 22.2H9.88558C10.4049 22.1982 10.9022 22.0123 11.2687 21.683C11.6352 21.3538 11.841 20.9079 11.841 20.4432V11.9297C11.841 11.8343 11.8833 11.7429 11.9586 11.6755C12.0339 11.6081 12.1361 11.5702 12.2426 11.5702H14.6253C15.0684 11.5704 15.5072 11.4924 15.9166 11.3408C16.326 11.1892 16.6981 10.9668 17.0115 10.6865C17.3249 10.4061 17.5735 10.0733 17.7431 9.70691C17.9127 9.34055 18 8.94786 18 8.5513V6.89184C17.9992 6.17906 17.6829 5.4956 17.1203 4.99108C16.5577 4.48656 15.7947 4.2021 14.9982 4.19995ZM9.41146 20.6229H8.70782C8.60518 20.6229 8.50355 20.6048 8.40874 20.5696C8.31393 20.5344 8.22781 20.4828 8.1553 20.4178C8.08279 20.3528 8.02532 20.2756 7.98617 20.1907C7.94703 20.1058 7.92699 20.0148 7.92719 19.9229V11.931C7.92719 11.8357 7.9695 11.7443 8.04482 11.6769C8.12015 11.6094 8.22231 11.5716 8.32883 11.5716H9.69684C9.80336 11.5716 9.90552 11.6094 9.98084 11.6769C10.0562 11.7443 10.0985 11.8357 10.0985 11.931V20.0081C10.0985 20.1711 10.0261 20.3275 9.89726 20.4428C9.76842 20.5581 9.59367 20.6229 9.41146 20.6229ZM16.2575 8.87968C16.2575 9.17823 16.125 9.46455 15.8891 9.67565C15.6533 9.88676 15.3333 10.0054 14.9997 10.0054H12.2501C12.1436 10.0054 12.0415 9.96749 11.9661 9.90007C11.8908 9.83266 11.8485 9.74123 11.8485 9.6459V8.98779C11.8485 8.81944 11.8114 8.65274 11.7394 8.49723C11.6674 8.34171 11.5618 8.20043 11.4287 8.08145C11.2956 7.96247 11.1377 7.86813 10.9638 7.80383C10.79 7.73953 10.6037 7.70653 10.4156 7.70671H2.83114C2.32078 7.70671 1.90705 7.38779 1.90705 6.9959V6.47292C1.90705 6.08103 2.32078 5.76347 2.83114 5.76347H14.9982C15.3317 5.76382 15.6514 5.88253 15.8872 6.09356C16.123 6.30459 16.2556 6.5907 16.256 6.88914L16.2575 8.87968Z" fill="#FCFCFC"/>
<path d="M31.616 22.2V8.27995H26.816V5.39995H39.68V8.27995H34.736V22.2H31.616ZM40.7827 22.2V9.55195H43.6867L43.7347 13.584L43.3267 12.672C43.5027 12.032 43.8067 11.456 44.2387 10.944C44.6707 10.432 45.1667 10.0319 45.7267 9.74395C46.3027 9.43995 46.9027 9.28795 47.5267 9.28795C47.7987 9.28795 48.0547 9.31195 48.2947 9.35995C48.5507 9.40795 48.7587 9.46395 48.9187 9.52795L48.1267 12.768C47.9507 12.672 47.7347 12.592 47.4787 12.528C47.2227 12.464 46.9667 12.432 46.7107 12.432C46.3107 12.432 45.9267 12.512 45.5587 12.672C45.2067 12.816 44.8947 13.024 44.6227 13.296C44.3507 13.568 44.1347 13.888 43.9747 14.256C43.8307 14.608 43.7587 15.008 43.7587 15.456V22.2H40.7827ZM55.1212 22.44C54.0812 22.44 53.1372 22.152 52.2892 21.576C51.4412 21 50.7612 20.216 50.2492 19.224C49.7372 18.232 49.4812 17.104 49.4812 15.84C49.4812 14.576 49.7372 13.448 50.2492 12.456C50.7612 11.464 51.4572 10.688 52.3372 10.128C53.2172 9.56795 54.2092 9.28795 55.3132 9.28795C55.9532 9.28795 56.5372 9.38395 57.0652 9.57595C57.5932 9.75195 58.0572 10.008 58.4572 10.344C58.8572 10.68 59.1852 11.064 59.4412 11.496C59.7132 11.928 59.8972 12.392 59.9932 12.888L59.3452 12.72V9.55195H62.3212V22.2H59.3212V19.176L60.0172 19.056C59.9052 19.488 59.6972 19.912 59.3932 20.328C59.1052 20.728 58.7372 21.088 58.2892 21.408C57.8572 21.712 57.3692 21.96 56.8252 22.152C56.2972 22.344 55.7292 22.44 55.1212 22.44ZM55.9372 19.824C56.6252 19.824 57.2332 19.656 57.7612 19.32C58.2892 18.984 58.6972 18.52 58.9852 17.928C59.2892 17.32 59.4412 16.624 59.4412 15.84C59.4412 15.072 59.2892 14.392 58.9852 13.8C58.6972 13.208 58.2892 12.744 57.7612 12.408C57.2332 12.072 56.6252 11.904 55.9372 11.904C55.2492 11.904 54.6412 12.072 54.1132 12.408C53.6012 12.744 53.2012 13.208 52.9132 13.8C52.6252 14.392 52.4812 15.072 52.4812 15.84C52.4812 16.624 52.6252 17.32 52.9132 17.928C53.2012 18.52 53.6012 18.984 54.1132 19.32C54.6412 19.656 55.2492 19.824 55.9372 19.824ZM70.8316 22.44C69.7116 22.44 68.7036 22.16 67.8076 21.6C66.9276 21.024 66.2236 20.248 65.6956 19.272C65.1836 18.28 64.9276 17.144 64.9276 15.864C64.9276 14.6 65.1836 13.472 65.6956 12.48C66.2076 11.488 66.9036 10.712 67.7836 10.152C68.6796 9.57595 69.6876 9.28795 70.8076 9.28795C71.4156 9.28795 71.9996 9.38395 72.5596 9.57595C73.1356 9.76795 73.6476 10.032 74.0956 10.368C74.5436 10.688 74.8956 11.048 75.1516 11.448C75.4236 11.848 75.5756 12.264 75.6076 12.696L74.8156 12.792V4.43995H77.7676V22.2H74.9116L74.8396 19.224L75.4156 19.272C75.3996 19.672 75.2556 20.056 74.9836 20.424C74.7276 20.792 74.3916 21.128 73.9756 21.432C73.5596 21.736 73.0716 21.984 72.5116 22.176C71.9676 22.352 71.4076 22.44 70.8316 22.44ZM71.4076 19.944C72.0956 19.944 72.7036 19.768 73.2316 19.416C73.7596 19.064 74.1676 18.584 74.4556 17.976C74.7596 17.368 74.9116 16.664 74.9116 15.864C74.9116 15.08 74.7596 14.384 74.4556 13.776C74.1676 13.152 73.7596 12.672 73.2316 12.336C72.7036 11.984 72.0956 11.808 71.4076 11.808C70.7196 11.808 70.1116 11.984 69.5836 12.336C69.0556 12.672 68.6396 13.152 68.3356 13.776C68.0476 14.384 67.9036 15.08 67.9036 15.864C67.9036 16.664 68.0476 17.368 68.3356 17.976C68.6396 18.584 69.0556 19.064 69.5836 19.416C70.1116 19.768 70.7196 19.944 71.4076 19.944ZM87.0466 22.44C85.7186 22.44 84.5426 22.16 83.5186 21.6C82.5106 21.04 81.7186 20.28 81.1426 19.32C80.5826 18.344 80.3026 17.232 80.3026 15.984C80.3026 14.992 80.4626 14.088 80.7826 13.272C81.1026 12.456 81.5426 11.752 82.1026 11.16C82.6786 10.552 83.3586 10.088 84.1426 9.76795C84.9426 9.43195 85.8146 9.26395 86.7586 9.26395C87.5906 9.26395 88.3666 9.42395 89.0866 9.74395C89.8066 10.064 90.4306 10.504 90.9586 11.064C91.4866 11.608 91.8866 12.264 92.1586 13.032C92.4466 13.784 92.5826 14.608 92.5666 15.504L92.5426 16.536H82.2946L81.7426 14.52H90.0706L89.6866 14.928V14.4C89.6386 13.904 89.4786 13.472 89.2066 13.104C88.9346 12.72 88.5826 12.424 88.1506 12.216C87.7346 11.992 87.2706 11.88 86.7586 11.88C85.9746 11.88 85.3106 12.032 84.7666 12.336C84.2386 12.64 83.8386 13.08 83.5666 13.656C83.2946 14.216 83.1586 14.92 83.1586 15.768C83.1586 16.584 83.3266 17.296 83.6626 17.904C84.0146 18.512 84.5026 18.984 85.1266 19.32C85.7666 19.64 86.5106 19.8 87.3586 19.8C87.9506 19.8 88.4946 19.704 88.9906 19.512C89.4866 19.32 90.0226 18.976 90.5986 18.48L92.0626 20.52C91.6306 20.92 91.1346 21.264 90.5746 21.552C90.0306 21.824 89.4546 22.04 88.8466 22.2C88.2386 22.36 87.6386 22.44 87.0466 22.44ZM99.0028 22.2L93.6748 9.55195H96.8908L100.491 19.008L99.8668 19.176L103.659 9.55195H106.803L101.211 22.2H99.0028ZM113.354 22.44C112.442 22.44 111.65 22.24 110.978 21.84C110.306 21.424 109.794 20.84 109.442 20.088C109.09 19.32 108.914 18.408 108.914 17.352V9.55195H111.866V16.728C111.866 17.4 111.97 17.976 112.178 18.456C112.386 18.92 112.69 19.28 113.09 19.536C113.49 19.792 113.97 19.92 114.53 19.92C114.946 19.92 115.322 19.856 115.658 19.728C116.01 19.584 116.314 19.392 116.57 19.152C116.826 18.896 117.026 18.6 117.17 18.264C117.314 17.912 117.386 17.536 117.386 17.136V9.55195H120.338V22.2H117.458L117.41 19.56L117.938 19.272C117.746 19.88 117.418 20.424 116.954 20.904C116.506 21.368 115.97 21.744 115.346 22.032C114.722 22.304 114.058 22.44 113.354 22.44ZM129.509 22.2L136.061 5.39995H138.989L145.493 22.2H142.253L138.653 12.648C138.573 12.456 138.461 12.152 138.317 11.736C138.189 11.32 138.045 10.872 137.885 10.392C137.725 9.89595 137.581 9.43995 137.453 9.02395C137.325 8.59195 137.229 8.27995 137.165 8.08795L137.765 8.06395C137.669 8.38395 137.557 8.74395 137.429 9.14395C137.301 9.54395 137.165 9.95995 137.021 10.392C136.877 10.824 136.733 11.24 136.589 11.64C136.461 12.04 136.341 12.4 136.229 12.72L132.629 22.2H129.509ZM132.485 18.36L133.565 15.648H141.221L142.373 18.36H132.485ZM148.294 22.2V8.42395C148.294 7.65595 148.462 6.97595 148.798 6.38395C149.134 5.77595 149.598 5.30395 150.19 4.96795C150.782 4.61595 151.47 4.43995 152.254 4.43995C152.798 4.43995 153.302 4.53595 153.766 4.72795C154.23 4.90395 154.622 5.15195 154.942 5.47195L154.03 7.70395C153.822 7.52795 153.598 7.39195 153.358 7.29595C153.134 7.19995 152.918 7.15195 152.71 7.15195C152.39 7.15195 152.118 7.20795 151.894 7.31995C151.686 7.41595 151.526 7.56795 151.414 7.77595C151.318 7.98395 151.27 8.23195 151.27 8.51995V22.2H149.782C149.494 22.2 149.222 22.2 148.966 22.2C148.726 22.2 148.502 22.2 148.294 22.2ZM146.326 12.408V9.81595H154.126V12.408H146.326ZM156.564 22.2V9.55195H159.468L159.516 13.584L159.108 12.672C159.284 12.032 159.588 11.456 160.02 10.944C160.452 10.432 160.948 10.0319 161.508 9.74395C162.084 9.43995 162.684 9.28795 163.308 9.28795C163.58 9.28795 163.836 9.31195 164.076 9.35995C164.332 9.40795 164.54 9.46395 164.7 9.52795L163.908 12.768C163.732 12.672 163.516 12.592 163.26 12.528C163.004 12.464 162.748 12.432 162.492 12.432C162.092 12.432 161.708 12.512 161.34 12.672C160.988 12.816 160.676 13.024 160.404 13.296C160.132 13.568 159.916 13.888 159.756 14.256C159.612 14.608 159.54 15.008 159.54 15.456V22.2H156.564ZM167.002 22.2V9.55195H169.954V22.2H167.002ZM168.442 6.86395C167.85 6.86395 167.386 6.71995 167.05 6.43195C166.73 6.12795 166.57 5.70395 166.57 5.15995C166.57 4.64795 166.738 4.23195 167.074 3.91195C167.41 3.59195 167.866 3.43195 168.442 3.43195C169.05 3.43195 169.514 3.58395 169.834 3.88795C170.17 4.17595 170.338 4.59995 170.338 5.15995C170.338 5.65595 170.17 6.06395 169.834 6.38395C169.498 6.70395 169.034 6.86395 168.442 6.86395ZM179.121 22.44C177.937 22.44 176.873 22.152 175.929 21.576C174.985 21 174.241 20.216 173.697 19.224C173.153 18.232 172.881 17.112 172.881 15.864C172.881 14.616 173.153 13.496 173.697 12.504C174.241 11.512 174.985 10.728 175.929 10.152C176.873 9.57595 177.937 9.28795 179.121 9.28795C180.257 9.28795 181.289 9.50395 182.217 9.93595C183.145 10.368 183.865 10.968 184.377 11.736L182.745 13.704C182.505 13.368 182.201 13.064 181.833 12.792C181.465 12.52 181.073 12.304 180.657 12.144C180.241 11.984 179.825 11.904 179.409 11.904C178.705 11.904 178.073 12.08 177.513 12.432C176.969 12.768 176.537 13.24 176.217 13.848C175.897 14.44 175.737 15.112 175.737 15.864C175.737 16.616 175.897 17.288 176.217 17.88C176.553 18.472 177.001 18.944 177.561 19.296C178.121 19.648 178.745 19.824 179.433 19.824C179.849 19.824 180.249 19.76 180.633 19.632C181.033 19.488 181.409 19.288 181.761 19.032C182.113 18.776 182.441 18.456 182.745 18.072L184.377 20.064C183.833 20.768 183.081 21.344 182.121 21.792C181.177 22.224 180.177 22.44 179.121 22.44ZM191.41 22.44C190.37 22.44 189.426 22.152 188.578 21.576C187.73 21 187.05 20.216 186.538 19.224C186.026 18.232 185.77 17.104 185.77 15.84C185.77 14.576 186.026 13.448 186.538 12.456C187.05 11.464 187.746 10.688 188.626 10.128C189.506 9.56795 190.498 9.28795 191.602 9.28795C192.242 9.28795 192.826 9.38395 193.354 9.57595C193.882 9.75195 194.346 10.008 194.746 10.344C195.146 10.68 195.474 11.064 195.73 11.496C196.002 11.928 196.186 12.392 196.282 12.888L195.634 12.72V9.55195H198.61V22.2H195.61V19.176L196.306 19.056C196.194 19.488 195.986 19.912 195.682 20.328C195.394 20.728 195.026 21.088 194.578 21.408C194.146 21.712 193.658 21.96 193.114 22.152C192.586 22.344 192.018 22.44 191.41 22.44ZM192.226 19.824C192.914 19.824 193.522 19.656 194.05 19.32C194.578 18.984 194.986 18.52 195.274 17.928C195.578 17.32 195.73 16.624 195.73 15.84C195.73 15.072 195.578 14.392 195.274 13.8C194.986 13.208 194.578 12.744 194.05 12.408C193.522 12.072 192.914 11.904 192.226 11.904C191.538 11.904 190.93 12.072 190.402 12.408C189.89 12.744 189.49 13.208 189.202 13.8C188.914 14.392 188.77 15.072 188.77 15.84C188.77 16.624 188.914 17.32 189.202 17.928C189.49 18.52 189.89 18.984 190.402 19.32C190.93 19.656 191.538 19.824 192.226 19.824Z" fill="#FCFCFC"/>
</g>
<defs>
<clipPath id="clip0_104_719">
<rect width="201" height="26" fill="white" transform="translate(0 0.199951)"/>
</clipPath>
</defs>
</svg>
